<svg xmlns="http://www.w3.org/2000/svg" viewBox="0 0 1821.15 534.98"><defs><style>.cls-1{fill:#f7b185;}.cls-1,.cls-2,.cls-3{stroke:#efbcb4;stroke-width:9.86px;}.cls-1,.cls-2,.cls-3,.cls-5{stroke-miterlimit:10;}.cls-2,.cls-4{fill:#f16332;}.cls-3{fill:#f08453;}.cls-5{fill:none;stroke:#595959;stroke-width:10px;}</style></defs><g id="Layer_2" data-name="Layer 2"><g id="Layer_1-2" data-name="Layer 1"><polygon class="cls-1" points="310.51 66.33 266.75 213.03 242.19 295.38 151.89 34.05 152.44 33.31 310.51 66.33"/><polygon class="cls-2" points="242.19 295.38 111.83 252.81 6.28 218.34 5.23 212.02 151.89 34.05 242.19 295.38"/><polygon class="cls-1" points="111.83 252.81 44.6 417.97 39.42 416.53 6.28 218.34 111.83 252.81"/><polygon class="cls-3" points="242.19 295.38 89.24 430.31 44.6 417.97 111.83 252.81 242.19 295.38"/><polygon class="cls-2" points="242.19 295.38 201.16 461.23 89.24 430.31 242.19 295.38"/><polygon class="cls-1" points="302.2 484.33 297.68 487.9 201.16 461.23 242.19 295.38 272.02 389.3 302.2 484.33"/><polygon class="cls-1" points="422.85 389.3 302.2 484.33 272.02 389.3 422.85 389.3"/><polygon class="cls-3" points="464.13 356.76 422.85 389.3 272.02 389.3 242.19 295.38 426.29 329.21 464.13 356.76"/><polygon class="cls-3" points="438.12 177.71 317.62 250.08 266.75 213.03 310.51 66.33 415.49 85.52 438.12 177.71"/><polygon class="cls-2" points="477.61 338.63 426.29 329.21 317.62 250.08 438.12 177.71 477.61 338.63"/><polygon class="cls-3" points="479.15 344.93 464.13 356.76 426.29 329.21 477.61 338.63 479.15 344.93"/><polygon class="cls-2" points="426.29 329.21 242.19 295.38 317.62 250.08 426.29 329.21"/><polygon class="cls-3" points="317.62 250.08 242.19 295.38 266.75 213.03 317.62 250.08"/><path class="cls-4" d="M831.69,233.05V9.89H967.48V47.64h-99V97.11h91.94v37.6H868.53V195.3h102.3v37.75Z"/><path class="cls-4" d="M994.57,122.84q0-39.89,11.8-65.69t30.83-38.43q19-12.64,46.12-12.64,39.29,0,64,30t24.74,85.4q0,56-26.18,87.53-23,27.85-62.42,27.86-39.72,0-62.71-27.55Q994.57,177.8,994.57,122.84Zm38.06-1.52q0,38.51,14.64,57.77t36.28,19.26q21.79,0,36.13-19.11T1134,120.56q0-38.82-14-57.39T1083.55,44.6q-22.56,0-36.74,18.72T1032.63,121.32Z"/><path class="cls-4" d="M1201,233.05V9.89h59.37q33.2,0,43.39,3.19,16.29,5.19,26.87,22.08t10.58,43.53q0,24.21-9.14,40.57t-22.83,23q-13.7,6.62-47.19,6.62h-24.21v84.18Zm36.84-185.41v63.48h20.45q20.6,0,28-2.9a25,25,0,0,0,12.13-10.45q4.72-7.56,4.73-18.54,0-11.15-4.88-18.77T1286.2,50.23q-7.17-2.58-30.36-2.59Z"/><path class="cls-4" d="M1372.56,233.05V11.71h36.84V195.3h91.94v37.75Z"/><path class="cls-4" d="M1527.83,233.05V9.89h135.79V47.64h-98.95V97.11h91.94v37.6h-91.94V195.3H1667v37.75Z"/><path class="cls-4" d="M811.12,531.17,874.37,415,816.9,308h43.18l36.26,66.76L932.79,308h42.73L918.07,414.76l63.24,116.41H936.75l-40.63-75.64-40.71,75.64Z"/><path class="cls-4" d="M1000,531.17V308h59.37q33.18,0,43.39,3.2,16.28,5.18,26.87,22.07t10.57,43.54q0,24.21-9.13,40.57t-22.83,23q-13.71,6.61-47.19,6.62h-24.21v84.18Zm36.84-185.41v63.48h20.45q20.6,0,28-2.9a25,25,0,0,0,12.13-10.46q4.72-7.54,4.73-18.54t-4.88-18.77q-4.89-7.62-12.06-10.22t-30.36-2.59Z"/><path class="cls-4" d="M1170.68,531.17V308h135.79v37.76h-99v49.47h92v37.6h-92v60.59h102.3v37.75Z"/><path class="cls-4" d="M1341.18,531.17V308H1419q29.83,0,42.63,6t21,20.85q8.22,14.85,8.22,35.55,0,26.18-12.56,42.16t-35.7,20.1a92.22,92.22,0,0,1,19.64,18.65q7.75,10.13,21.16,36.3l22.22,43.54H1461.5l-26.73-48.56q-14.44-26.34-19.61-33t-11-9.13q-5.79-2.52-18.57-2.51H1378v93.16ZM1378,402.39h27.41q25.11,0,32-2.21a20.43,20.43,0,0,0,11.12-8.91q4.26-6.69,4.26-17.81,0-10.65-4.26-17.12a21.76,21.76,0,0,0-11.57-8.91q-5.17-1.67-30-1.67H1378Z"/><path class="cls-4" d="M1566.78,531.17V345.76h-54.35V308h145.38v37.76h-54.19V531.17Z"/><path class="cls-4" d="M1672.42,458.41l36.08-4.27q6.09,42.78,39.89,42.78,16.74,0,26.33-8.75a28.14,28.14,0,0,0,9.59-21.68,23.84,23.84,0,0,0-3.35-12.94,24.67,24.67,0,0,0-10.2-8.75q-6.84-3.42-33.18-11.47-23.6-7.14-34.56-15.51a58.88,58.88,0,0,1-17.43-22,67.38,67.38,0,0,1-6.47-29.28,65.3,65.3,0,0,1,8.3-32.85,54.24,54.24,0,0,1,22.91-22.06q14.61-7.45,36.08-7.45,32.27,0,50.39,17.5T1816,371.79l-37,2q-2.43-18-10.5-25.12t-23-7.16q-14.91,0-23,6.23t-8.07,15.48a19.35,19.35,0,0,0,7.32,15.32q7.32,6.23,33.66,13.69,27.84,8.07,40.25,17a57.71,57.71,0,0,1,18.94,23q6.54,14.07,6.54,34.16,0,29.09-17.89,48.86T1747.32,535Q1680,535,1672.42,458.41Z"/><line class="cls-5" x1="544.29" x2="544.29" y2="521.22"/><path class="cls-4" d="M790.66,35.16q-10.57-16.9-26.86-22.08-10.21-3.2-43.39-3.19H661V111.12H633v38.14h28v83.79h36.84V148.87h24.2q33.49,0,47.2-6.62t22.83-23q9.14-16.35,9.13-40.57Q801.24,52.07,790.66,35.16Zm-32.2,62.61a25,25,0,0,1-12.14,10.45q-7.4,2.9-28,2.9H697.88V47.64h18q23.19,0,30.36,2.59t12,10.23q4.89,7.63,4.89,18.77Q763.19,90.21,758.46,97.77Z"/><polygon class="cls-4" points="696.03 493.42 696.03 432.83 787.98 432.83 787.98 395.23 696.03 395.23 696.03 345.76 794.98 345.76 794.98 308 659.19 308 659.19 396.75 633.44 396.75 633.44 432.83 659.19 432.83 659.19 531.17 798.33 531.17 798.33 493.42 696.03 493.42"/></g></g></svg>